# xmcd
# Copyright (C) 1995-1998 Ti Kan
#
# Track frame offsets:
#       150
#       14685
#       31262
#       49992
#       67305
#       83697
#       103055
#       118015
#       134022
#       152140
#       166377
#       179250
#       200205
#
# Disc length: 2932 seconds
#
# Revision: 2
# Processed by: cddbd v1.4PL0 Copyright (c) Steve Scherf et al.
# Submitted via: CD-Transfer v1.0
#
DISCID=c10b720d
DTITLE=Miss Monneypenny - Whentheairgoesrare
DYEAR=2003
DGENRE=
TTITLE0=Tempted
TTITLE1=Unsteadiness
TTITLE2=When The Air Goes Rare
TTITLE3=One Day
TTITLE4=Excessive
TTITLE5=My Own Family
TTITLE6=White Room
TTITLE7=Summer Song
TTITLE8=Your Dress
TTITLE9=Miss Monneypenny
TTITLE10=Strange
TTITLE11=Bone To Chew
TTITLE12=Contrast
EXTD=
EXTT0=
EXTT1=
EXTT2=
EXTT3=
EXTT4=
EXTT5=
EXTT6=
EXTT7=
EXTT8=
EXTT9=
EXTT10=
EXTT11=
EXTT12=
PLAYORDER=
